#!OML:ASF E:\CV Data\Top Level 1\Subject 1\Session 1\player.ASF
:FULLY-SPECIFIED
:DEGREES
1261
root -3.23318 17.3354 2.42446 4.37738 -11.1187 -4.89395
lowerback 6.7438 -0.496122 0.571818
upperback -2.4428 -0.352574 4.45313
thorax -6.32532 -0.101958 4.3973
lowerneck -19.2322 -7.80822 -11.5556
upperneck 23.7842 -10.4102 10.362
head 12.2293 -4.48497 4.07691
rclavicle -1.19644e-014 -7.95139e-016
rhumerus 310.815 330.399 668.874
rradius 16.0083
rwrist 1.9013
rhand -23.0546 0.443787
rfingers 7.12502
rthumb 3.39033 -29.509
lclavicle -1.19644e-014 -7.95139e-016
lhumerus -33.5136 10.3088 79.236
lradius 29.3279
lwrist -13.7353
lhand -9.87245 8.83079
lfingers 7.12502
lthumb 16.1065 38.1815
rfemur -17.3683 7.22322 24.2814
rtibia 38.849
rfoot -23.2924 -9.87192
rtoes 3.57343
lfemur -14.0337 3.05096 -16.1532
ltibia 35.388
lfoot -19.9557 4.68005
ltoes 2.14438
1262
root -3.22763 17.3363 2.42272 4.39165 -11.4709 -4.86145
lowerback 6.71088 -0.412429 0.504403
upperback -2.51833 -0.24991 4.36284
thorax -6.39347 -0.0490779 4.32852
lowerneck -19.2268 -7.79546 -11.6012
upperneck 23.964 -10.3551 10.221
head 12.2846 -4.48133 4.04425
rclavicle 1.16662e-014 -1.82882e-014
rhumerus 311.723 330.452 668.051
rradius 15.9013
rwrist 2.25446
rhand -22.7009 0.791662
rfingers 7.12502
rthumb 3.7319 -29.1554
lclavicle 1.16662e-014 -1.82882e-014
lhumerus -33.6091 10.9904 78.8488
lradius 29.0432
lwrist -13.7662
lhand -10.1963 9.12088
lfingers 7.12502
lthumb 15.7946 38.4965
rfemur -17.4315 7.31882 24.2007
rtibia 38.8676
rfoot -23.2556 -9.63474
rtoes 3.547
lfemur -13.9654 3.07347 -16.24
ltibia 35.3255
lfoot -19.8989 4.94983
ltoes 2.18043
1263
root -3.22253 17.337 2.42131 4.40568 -11.807 -4.83332
lowerback 6.67479 -0.334994 0.439272
upperback -2.59885 -0.155127 4.27733
thorax -6.4645 -1.97381e-005 4.26449
lowerneck -19.2115 -7.77848 -11.6447
upperneck 24.1366 -10.2945 10.08
head 12.3345 -4.47568 4.01222
rclavicle -3.26255e-014 1.59028e-014
rhumerus 312.697 330.569 667.142
rradius 15.8044
rwrist 2.63154
rhand -22.3333 1.17144
rfingers 7.12502
rthumb 4.08693 -28.7691
lclavicle -3.26255e-014 1.59028e-014
lhumerus -33.7261 11.6137 78.4937
lradius 28.7755
lwrist -13.7118
lhand -10.5299 9.41057
lfingers 7.12502
lthumb 15.4733 38.8113
rfemur -17.4917 7.41641 24.1278
rtibia 38.8867
rfoot -23.2241 -9.41155
rtoes 3.53209
lfemur -13.9021 3.11132 -16.317
ltibia 35.2687
lfoot -19.8514 5.18876
ltoes 2.20443
1264
root -3.2178 17.3375 2.4204 4.41364 -12.1181 -4.81173
lowerback 6.63648 -0.267592 0.381641
upperback -2.67533 -0.0730946 4.19694
thorax -6.52905 0.0424238 4.20299
lowerneck -19.2017 -7.75889 -11.6867
upperneck 24.3039 -10.2296 9.94124
head 12.3832 -4.46778 3.98129
rclavicle -5.92006e-015 2.06736e-014
rhumerus 313.757 330.788 666.105
rradius 15.7421
rwrist 2.94586
rhand -21.9808 1.53313
rfingers 7.12502
rthumb 4.42734 -28.4006
lclavicle -5.92006e-015 2.06736e-014
lhumerus -33.8471 12.1791 78.1739
lradius 28.5217
lwrist -13.5773
lhand -10.8686 9.69656
lfingers 7.12502
lthumb 15.147 39.1222
rfemur -17.5378 7.50888 24.0663
rtibia 38.9021
rfoot -23.1981 -9.20382
rtoes 3.5282
lfemur -13.8372 3.15677 -16.3812
ltibia 35.2187
lfoot -19.8142 5.3956
ltoes 2.2384
1265
root -3.21333 17.3378 2.42004 4.41646 -12.4065 -4.79883
lowerback 6.59578 -0.209973 0.337259
upperback -2.75476 -0.00261355 4.12268
thorax -6.59452 0.0787556 4.1419
lowerneck -19.1747 -7.73305 -11.736
upperneck 24.4641 -10.1565 9.81001
head 12.4258 -4.45685 3.95615
rclavicle 9.77772e-015 -2.38542e-015
rhumerus 314.884 331.145 664.941
rradius 15.7313
rwrist 3.15163
rhand -21.6677 1.83773
rfingers 7.12502
rthumb 4.72968 -28.0895
lclavicle 9.77772e-015 -2.38542e-015
lhumerus -33.9876 12.682 77.89
lradius 28.2834
lwrist -13.3678
lhand -11.1969 9.98009
lfingers 7.12502
lthumb 14.8308 39.4293
rfemur -17.5685 7.59332 24.0167
rtibia 38.9108
rfoot -23.1781 -9.00381
rtoes 3.53504
lfemur -13.7706 3.20609 -16.4329
ltibia 35.176
lfoot -19.785 5.58415
ltoes 2.25998
1266
root -3.20899 17.338 2.42016 4.414 -12.6645 -4.79889
lowerback 6.55411 -0.163445 0.312603
upperback -2.83254 0.0550397 4.05455
thorax -6.65674 0.107965 4.07759
lowerneck -19.143 -7.70532 -11.7824
upperneck 24.62 -10.0804 9.6757
head 12.4652 -4.44506 3.92984
rclavicle 2.24161e-014 1.19271e-014
rhumerus 316.073 331.657 663.641
rradius 15.7885
rwrist 3.19698
rhand -21.4013 2.0825
rfingers 7.12502
rthumb 4.98684 -27.8388
lclavicle 2.24161e-014 1.19271e-014
lhumerus -34.131 13.1196 77.644
lradius 28.0566
lwrist -13.1006
lhand -11.4903 10.266
lfingers 7.12502
lthumb 14.5481 39.7358
rfemur -17.5809 7.66275 23.9841
rtibia 38.9103
rfoot -23.1628 -8.81255
rtoes 3.54343
lfemur -13.7026 3.24793 -16.4677
ltibia 35.141
lfoot -19.7618 5.75804
ltoes 2.27642
1267
root -3.20476 17.3382 2.42065 4.4078 -12.8966 -4.81048
lowerback 6.51209 -0.125353 0.305213
upperback -2.90643 0.103119 3.99215
thorax -6.7139 0.131697 4.01063
lowerneck -19.1135 -7.67698 -11.8266
upperneck 24.7764 -10.0025 9.538
head 12.505 -4.43281 3.90204
rclavicle 1.10869e-014 -2.98177e-014
rhumerus 317.304 332.305 662.242
rradius 15.9154
rwrist 3.1048
rhand -21.1784 2.27573
rfingers 7.12502
rthumb 5.20213 -27.6404
lclavicle 1.10869e-014 -2.98177e-014
lhumerus -34.2738 13.4854 77.4418
lradius 27.8471
lwrist -12.7789
lhand -11.7575 10.5254
lfingers 7.12502
lthumb 14.2907 40.0136
rfemur -17.5774 7.71952 23.9654
rtibia 38.8998
rfoot -23.1514 -8.6241
rtoes 3.56122
lfemur -13.6351 3.28173 -16.4887
ltibia 35.1139
lfoot -19.7428 5.92344
ltoes 2.29332
1268
root -3.20055 17.3383 2.42165 4.39737 -13.1037 -4.83346
lowerback 6.46816 -0.0950866 0.315479
upperback -2.98121 0.142675 3.93652
thorax -6.77025 0.150546 3.94188
lowerneck -19.0685 -7.64636 -11.8765
upperneck 24.9364 -9.92217 9.40286
head 12.5435 -4.42042 3.87697
rclavicle 3.67449e-014 -2.10712e-014
rhumerus 318.538 333.066 660.803
rradius 16.1036
rwrist 2.90753
rhand -20.9668 2.50227
rfingers 7.12502
rthumb 5.40642 -27.4088
lclavicle 3.67449e-014 -2.10712e-014
lhumerus -34.4256 13.7764 77.2849
lradius 27.6535
lwrist -12.4159
lhand -12.0459 10.6986
lfingers 7.12502
lthumb 14.0128 40.2063
rfemur -17.5571 7.76134 23.9598
rtibia 38.8795
rfoot -23.1427 -8.43679
rtoes 3.57319
lfemur -13.5666 3.30161 -16.4976
ltibia 35.0946
lfoot -19.7268 6.08904
ltoes 2.30393
